<?xml version="1.0" standalone="no"?>
<!DOCTYPE svg PUBLIC "-//W3C//DTD SVG 20010904//EN"
 "http://www.w3.org/TR/2001/REC-SVG-20010904/DTD/svg10.dtd">
<svg version="1.0" xmlns="http://www.w3.org/2000/svg"
 width="319.000000pt" height="319.000000pt" viewBox="0 0 319.000000 319.000000"
 preserveAspectRatio="xMidYMid meet">
<metadata>
Created by potrace 1.11, written by Peter Selinger 2001-2013
</metadata>
<g transform="translate(0.000000,319.000000) scale(0.100000,-0.100000)"
fill="#000000" stroke="none">
<path d="M1369 3065 c-118 -19 -197 -40 -304 -81 -203 -79 -363 -183 -520
-339 -231 -231 -370 -505 -421 -826 -22 -138 -15 -414 15 -540 68 -297 192
-520 406 -735 227 -227 489 -365 800 -419 134 -24 366 -24 500 0 311 54 573
191 801 419 177 178 287 353 363 581 56 168 66 240 66 465 0 231 -8 283 -66
464 -74 226 -194 421 -365 591 -209 209 -458 345 -742 406 -128 27 -408 35
-533 14z m321 -85 c12 -8 13 -13 3 -30 -7 -11 -13 -49 -13 -84 0 -58 -3 -67
-26 -85 -38 -30 -98 -28 -129 4 -21 20 -25 34 -25 88 0 34 -5 68 -11 74 -19
19 0 33 46 33 47 0 64 -13 45 -35 -17 -20 -9 -116 12 -128 12 -8 21 -7 32 2
22 18 22 114 0 132 -14 12 -14 14 2 26 21 15 43 16 64 3z m173 -25 c48 -20 62
-59 31 -90 -12 -12 -19 -13 -30 -4 -8 6 -14 17 -14 24 0 7 -7 18 -15 25 -22
18 -45 -5 -45 -46 0 -43 24 -67 60 -59 16 3 31 2 34 -3 11 -18 -28 -53 -65
-58 -30 -5 -41 -1 -68 22 -57 52 -47 153 18 189 33 18 51 18 94 0z m-425 -18
c51 -54 47 -153 -6 -181 -27 -14 -118 -32 -136 -27 -5 1 -12 -2 -15 -7 -7 -10
-127 -52 -148 -52 -8 0 -13 13 -13 34 0 40 -34 124 -57 141 -17 13 -10 35 10
35 7 0 38 11 70 24 57 24 57 24 71 4 20 -28 10 -49 -20 -42 -35 9 -53 -1 -47
-25 7 -27 19 -27 26 1 5 18 8 19 21 9 16 -14 33 -78 22 -88 -3 -3 -12 0 -21 7
-13 10 -15 9 -15 -8 0 -12 4 -24 10 -27 16 -10 50 14 50 35 0 25 25 26 40 3 9
-14 10 -1 5 52 -4 47 -11 74 -22 82 -21 16 -3 40 35 46 78 12 118 7 140 -16z
m622 -39 c14 -34 30 -212 20 -222 -10 -10 -100 20 -100 33 0 4 6 13 12 19 10
10 10 15 -2 22 -23 15 -43 12 -36 -5 7 -20 -16 -29 -49 -21 -34 9 -32 19 16
68 22 23 52 61 66 85 28 48 58 57 73 21z m237 -101 c34 -32 35 -35 22 -63 -20
-42 -53 -40 -57 4 -6 61 -56 51 -68 -14 -8 -42 8 -64 47 -64 32 0 34 -3 19
-31 -16 -29 -81 -26 -117 5 -24 21 -28 32 -28 76 0 47 3 55 37 86 51 46 95 47
145 1z m-1356 3 c32 -18 24 -48 -13 -52 -25 -2 -33 -8 -33 -22 0 -11 6 -21 13
-24 9 -3 12 3 10 14 -5 33 26 21 47 -18 21 -39 16 -59 -10 -38 -12 10 -15 10
-15 -1 0 -8 5 -21 10 -29 14 -22 44 0 48 34 2 14 10 26 17 26 16 0 20 -6 29
-41 5 -25 0 -30 -63 -68 -38 -23 -72 -41 -75 -41 -3 0 -6 10 -6 21 0 33 -67
136 -92 143 -27 7 -21 14 55 67 62 44 54 41 78 29z m1473 -71 c28 -22 35 -49
11 -49 -19 0 -85 -98 -85 -127 0 -32 -32 -30 -72 6 -31 28 -32 28 -10 40 26
14 85 97 88 125 1 12 3 22 3 24 3 9 43 -2 65 -19z m-1614 -74 c37 -19 70 -74
70 -115 0 -27 -10 -42 -51 -80 -35 -32 -58 -46 -70 -43 -10 3 -16 9 -13 14 8
14 -68 108 -93 115 -36 10 -27 35 28 82 55 45 82 51 129 27z m1743 -25 c34
-27 43 -76 24 -123 -18 -41 -51 -66 -100 -74 -28 -4 -40 0 -68 25 -28 25 -34
37 -33 69 3 96 108 157 177 103z m-990 -64 c12 -12 37 -153 37 -207 0 -11 -16
-14 -68 -14 -73 0 -97 -11 -112 -50 -11 -28 7 -110 27 -127 13 -11 23 -5 65
42 58 64 67 59 69 -35 0 -33 4 -84 8 -112 l7 -53 -57 0 c-32 0 -61 -4 -64 -10
-3 -5 4 -41 16 -80 24 -80 27 -80 94 -11 45 47 62 51 71 17 7 -29 -12 -226
-23 -236 -4 -5 -70 -10 -146 -12 l-138 -4 7 51 c4 27 6 97 6 155 -1 144 -23
222 -145 512 -10 26 -8 31 27 67 68 70 167 111 288 120 9 0 23 -5 31 -13z
m134 -27 c70 -23 151 -70 218 -125 70 -57 179 -234 155 -249 -6 -3 -38 8 -73
25 -73 36 -164 51 -178 29 -5 -8 -9 -44 -9 -81 l0 -68 53 0 c30 0 70 9 96 20
24 11 45 20 47 20 2 0 4 -52 4 -115 0 -63 -2 -115 -5 -115 -3 0 -16 6 -28 14
-28 19 -110 37 -120 27 -9 -9 21 -97 57 -169 l26 -52 -27 -11 c-38 -15 -219
-24 -226 -12 -4 6 -2 73 4 149 9 122 8 162 -11 324 -18 160 -48 335 -66 393
-7 22 8 22 83 -4z m991 -45 c5 -9 5 -39 0 -71 -10 -67 -5 -77 19 -34 22 38 35
39 58 5 19 -29 13 -59 -10 -50 -9 3 -40 -15 -76 -44 -86 -69 -93 -67 -85 21 5
55 3 70 -6 67 -7 -2 -17 -14 -23 -26 -12 -27 -36 -28 -60 -2 -20 23 -14 50 13
50 24 0 101 66 113 97 7 20 12 22 28 13 11 -6 24 -17 29 -26z m-2057 -85 c56
-40 59 -127 5 -164 -45 -32 -139 -6 -166 46 -7 12 -12 38 -12 57 0 28 7 43 32
65 28 25 38 28 73 23 22 -4 52 -16 68 -27z m618 -143 c24 -64 66 -225 60 -230
-2 -2 -39 -6 -82 -10 -75 -7 -77 -6 -88 18 -7 14 -25 30 -42 37 -26 11 -35 10
-65 -7 -99 -54 -117 -193 -32 -237 51 -28 86 -11 113 52 23 55 7 49 170 66
l57 6 0 -78 c-1 -149 -64 -219 -217 -238 -64 -8 -164 16 -209 50 -41 32 -96
141 -102 204 -5 54 17 134 53 191 30 48 101 111 183 165 41 26 80 61 97 86
l28 43 27 -31 c15 -17 37 -56 49 -87z m-796 -38 c18 -18 35 -23 77 -24 51 0
55 -2 58 -26 4 -37 -28 -57 -81 -51 -32 3 -38 2 -27 -6 8 -6 25 -11 37 -11 31
0 36 -14 19 -55 -16 -37 -49 -48 -60 -20 -7 21 -112 69 -132 61 -27 -10 -27
24 0 79 38 77 69 93 109 53z m2435 -49 c36 -76 33 -99 -14 -99 -20 0 -22 4
-17 34 6 36 -5 50 -31 40 -23 -9 -20 -24 5 -24 12 0 19 -5 17 -12 -7 -20 -67
-51 -85 -44 -14 6 -14 8 2 26 14 15 15 20 4 20 -19 0 -34 -12 -42 -32 -3 -10
-10 -18 -15 -18 -12 0 -36 30 -49 61 -13 29 -1 51 23 42 19 -7 134 47 134 63
0 8 8 14 18 14 12 0 28 -22 50 -71z m46 -118 c10 -11 19 -35 19 -53 2 -28 -1
-33 -18 -30 -30 3 -136 -30 -142 -45 -9 -23 -40 -14 -53 16 -18 45 -10 63 30
66 42 2 130 39 130 54 0 17 15 13 34 -8z m-2556 -14 c2 -11 -5 -20 -20 -26
-23 -9 -23 -9 7 -22 17 -7 51 -13 77 -13 29 0 49 -4 52 -12 7 -19 -12 -80 -30
-95 -13 -11 -18 -10 -32 9 -10 12 -37 28 -61 37 -53 18 -69 19 -53 3 17 -17
15 -48 -2 -48 -8 0 -26 10 -40 23 l-25 22 20 60 c11 33 22 66 24 73 7 21 79
11 83 -11z m2020 -126 c83 -66 124 -182 93 -264 -6 -14 -44 -63 -86 -109 -94
-104 -129 -153 -121 -173 8 -23 46 3 46 32 0 32 104 133 168 162 28 14 54 22
56 20 3 -3 -4 -34 -15 -71 -20 -65 -23 -69 -190 -228 -112 -107 -174 -159
-180 -153 -21 21 -33 143 -21 215 16 93 44 148 116 227 72 78 93 121 80 159
-7 19 -18 28 -38 30 -50 6 -82 -39 -130 -185 -15 -46 -32 -83 -37 -83 -8 0 -5
121 6 242 5 62 48 149 91 187 51 45 97 43 162 -8z m557 13 c38 -15 56 -115 24
-135 -40 -25 -62 0 -37 41 7 10 9 22 6 26 -12 11 -28 -7 -28 -30 0 -31 -28
-64 -62 -72 -22 -5 -33 0 -58 24 -40 41 -43 103 -5 128 14 9 32 13 41 10 14
-5 13 -9 -5 -32 -25 -31 -27 -54 -6 -54 9 0 15 9 15 25 0 51 63 88 115 69z
m-2682 -69 c9 -8 47 -19 85 -25 76 -11 102 -18 102 -30 0 -4 -25 -25 -55 -45
-30 -21 -55 -42 -55 -47 0 -5 19 -8 43 -6 38 3 42 1 45 -22 1 -14 -2 -32 -8
-40 -8 -13 -12 -13 -32 -1 -30 18 -143 27 -153 12 -10 -18 -35 6 -35 34 0 22
22 46 80 88 l25 17 -40 -2 c-35 -3 -40 0 -43 19 -3 20 13 63 23 63 2 0 10 -7
18 -15z m439 -50 c17 -20 73 -67 125 -106 71 -54 101 -84 121 -121 15 -28 35
-60 44 -71 17 -21 17 -21 18 33 l0 56 73 0 c39 0 79 2 87 5 10 3 14 -2 12 -16
-20 -130 -9 -315 34 -574 13 -80 22 -146 21 -148 -2 -2 -37 21 -78 50 l-74 53
-12 74 c-16 99 -54 193 -102 257 -22 28 -47 64 -56 80 l-16 28 5 -41 c3 -22
17 -74 30 -115 13 -41 23 -76 21 -78 -3 -3 -47 31 -137 105 -10 7 -18 27 -18
44 0 30 -31 131 -104 335 -31 87 -47 185 -31 185 3 0 20 -16 37 -35z m2306
-108 l-3 -30 -81 -2 c-53 0 -88 -6 -98 -14 -23 -19 -38 -2 -40 45 l-1 37 78 2
c58 2 83 7 95 19 16 16 18 15 35 -5 11 -13 17 -35 15 -52z m-913 11 c3 -13 5
-63 3 -113 -3 -103 3 -99 -104 -69 -48 14 -72 16 -110 8 -46 -9 -49 -11 -56
-48 -5 -21 -7 -40 -5 -42 1 -2 22 3 45 12 82 28 167 -6 206 -81 37 -70 24
-220 -29 -341 -27 -60 -135 -179 -204 -223 -54 -35 -112 -41 -148 -16 -43 30
-72 166 -52 240 7 24 26 48 60 75 65 52 83 53 63 5 -19 -46 -18 -61 5 -84 29
-29 93 -10 148 45 35 35 43 50 43 79 0 74 -48 121 -121 119 -40 -1 -111 -37
-143 -73 -28 -31 -36 -26 -36 22 0 54 38 335 50 363 7 17 24 24 92 37 94 18
207 57 247 87 34 25 39 25 46 -2z m882 -100 c37 -34 46 -64 31 -107 -15 -43
-24 -51 -61 -51 -40 0 -47 28 -14 52 15 11 27 28 27 39 0 15 -7 19 -39 19 -59
0 -92 -45 -59 -78 10 -10 10 -15 -2 -22 -32 -20 -70 28 -70 89 0 27 37 71 70
84 29 12 92 -1 117 -25z m-2561 9 c1 -1 3 -38 5 -82 l4 -80 -25 3 c-57 6 -155
1 -158 -8 -7 -19 -32 -10 -37 13 -4 13 -5 50 -3 82 3 62 16 76 55 61 14 -6 14
-8 -1 -24 -25 -29 -20 -52 12 -52 26 1 26 1 8 15 -28 21 -8 37 39 33 37 -3 64
-28 31 -28 -9 0 -16 -4 -16 -10 0 -5 11 -10 25 -10 20 0 25 5 25 24 0 14 -10
32 -22 41 -20 13 -21 17 -8 25 12 8 59 5 66 -3z m932 -14 c20 -27 14 -57 -16
-86 -32 -30 -72 -35 -96 -11 -16 16 -21 71 -8 90 24 36 95 40 120 7z m68 -81
c-27 -53 -67 -92 -127 -122 -54 -28 -89 -27 -89 3 0 17 11 28 46 45 67 33 121
80 157 136 l32 49 3 -31 c2 -18 -7 -51 -22 -80z m236 103 c3 -3 -1 -31 -8 -63
-7 -31 -18 -115 -24 -187 -6 -71 -13 -144 -15 -162 -3 -18 -5 -108 -6 -200 0
-151 7 -240 27 -342 6 -30 5 -34 -12 -28 -83 25 -209 57 -225 57 -11 0 -28 4
-38 10 -17 9 -16 15 16 107 55 159 114 426 113 516 l-1 32 -39 -44 c-21 -24
-57 -82 -80 -128 -23 -47 -43 -83 -45 -81 -2 2 -8 32 -14 67 -6 35 -20 84 -32
109 l-22 45 39 30 c21 16 91 83 154 148 114 117 116 118 161 119 25 0 48 -2
51 -5z m1186 -190 c13 -14 53 -39 88 -56 71 -35 77 -40 68 -62 -7 -19 -38 -32
-110 -46 -32 -7 -72 -17 -87 -23 -35 -14 -48 1 -40 47 8 43 28 62 47 45 9 -7
16 -9 16 -4 0 5 3 19 6 32 6 21 4 22 -20 16 -23 -5 -26 -3 -26 19 0 60 21 72
58 32z m-2425 -13 c68 -75 16 -172 -93 -172 -60 0 -100 41 -100 104 0 37 4 48
25 62 26 17 65 11 65 -10 0 -7 -9 -21 -20 -31 -11 -10 -20 -26 -20 -37 0 -26
63 -25 90 2 24 24 25 38 4 61 -9 10 -13 23 -9 28 10 17 40 13 58 -7z m528
-684 c21 -28 19 -66 -2 -52 -6 3 -27 -9 -47 -28 -81 -76 -108 -83 -153 -39
-33 33 -37 66 -12 93 34 38 81 9 54 -34 -22 -36 -3 -30 43 12 25 24 46 50 46
60 0 9 3 19 6 22 11 12 45 -6 65 -34z m1409 -24 c30 -15 73 -32 94 -39 22 -6
42 -17 44 -24 5 -16 -58 -73 -77 -68 -9 2 -15 9 -13 15 3 15 -4 15 -29 2 -23
-13 -25 -30 -4 -30 20 0 19 -29 -2 -52 -24 -27 -53 -23 -53 7 0 33 -37 130
-55 145 -15 13 -20 51 -8 63 13 13 49 6 103 -19z m-1225 -115 c39 -35 43 -56
17 -90 -26 -32 -52 -20 -52 25 0 51 -33 57 -59 9 -24 -46 0 -100 40 -88 14 5
19 1 19 -14 0 -54 -107 -46 -136 11 -21 41 -13 102 18 135 48 52 102 56 153
12z m1025 10 c0 -11 15 -45 32 -75 36 -59 63 -68 63 -21 -1 43 38 32 50 -14 6
-23 0 -29 -55 -63 -55 -34 -101 -43 -85 -16 10 16 -56 121 -82 131 -31 11 -29
22 8 53 38 32 69 34 69 5z m-1240 -59 c0 -34 -26 -54 -53 -39 -35 20 -14 69
30 69 19 0 23 -5 23 -30z m1139 -75 c33 -34 67 -65 76 -68 24 -10 18 -26 -17
-47 -45 -27 -82 -27 -75 0 6 22 -17 27 -43 10 -13 -9 -13 -11 0 -20 23 -15 -1
-44 -40 -48 -28 -3 -32 -1 -25 15 9 22 9 142 0 182 -5 22 -2 32 11 39 28 15
50 3 113 -63z m-652 24 c36 -6 67 -17 70 -25 2 -7 -18 -41 -46 -76 -28 -34
-51 -66 -51 -70 0 -15 41 -8 46 7 4 8 12 15 20 15 20 0 18 -54 -3 -72 -16 -14
-25 -15 -83 -1 -88 20 -90 21 -90 31 0 5 23 38 50 72 28 34 50 66 50 71 0 14
-16 11 -30 -6 -31 -37 -55 2 -28 45 15 23 13 23 95 9z m447 -18 c10 -11 16
-31 14 -48 -2 -18 4 -33 16 -44 24 -19 26 -74 4 -95 -17 -17 -142 -45 -155
-35 -4 3 -9 41 -10 84 -1 59 -6 84 -19 98 -22 25 -11 37 47 48 69 14 85 12
103 -8z m-240 -23 c8 -13 26 -54 41 -92 14 -38 30 -75 36 -82 18 -22 0 -34
-53 -34 -48 0 -50 1 -46 25 5 22 2 25 -25 25 -23 0 -28 -3 -20 -11 19 -19 3
-39 -32 -39 -43 0 -51 14 -28 44 11 13 27 50 37 82 30 96 34 104 56 104 11 0
26 -10 34 -22z m-440 -50 c15 -25 -4 -53 -35 -53 -17 0 -25 6 -27 23 -7 46 38
67 62 30z"/>
<path d="M1345 2898 c3 -13 9 -43 13 -68 10 -59 36 -62 40 -5 3 46 -16 88 -41
93 -14 3 -17 -1 -12 -20z"/>
<path d="M1985 2810 c-3 -5 1 -10 9 -10 9 0 16 5 16 10 0 6 -4 10 -9 10 -6 0
-13 -4 -16 -10z"/>
<path d="M710 2599 c0 -17 82 -109 91 -103 19 11 7 48 -25 80 -33 33 -66 45
-66 23z"/>
<path d="M2474 2583 c-15 -15 -44 -73 -44 -88 0 -15 40 -2 53 19 36 54 29 107
-9 69z"/>
<path d="M504 2358 c-15 -24 67 -67 102 -54 13 5 14 9 3 22 -25 30 -93 52
-105 32z"/>
<path d="M380 2171 c0 -11 31 -24 39 -16 3 3 -1 10 -9 15 -19 12 -30 12 -30 1z"/>
<path d="M2870 1360 c0 -5 7 -10 16 -10 8 0 12 5 9 10 -3 6 -10 10 -16 10 -5
0 -9 -4 -9 -10z"/>
<path d="M2316 645 c4 -8 10 -12 15 -9 14 8 10 24 -6 24 -9 0 -12 -6 -9 -15z"/>
<path d="M1970 445 c0 -8 7 -15 16 -15 14 0 14 3 4 15 -7 8 -14 15 -16 15 -2
0 -4 -7 -4 -15z"/>
<path d="M1777 453 c-3 -5 -1 -17 4 -28 7 -17 8 -17 8 8 1 27 -4 34 -12 20z"/>
<path d="M1790 351 c0 -20 17 -37 27 -28 7 8 -7 47 -18 47 -5 0 -9 -9 -9 -19z"/>
<path d="M1555 380 c-8 -13 -1 -24 14 -19 6 3 7 10 2 18 -6 10 -10 10 -16 1z"/>
</g>
</svg>
